<svg viewBox="0 0 16 16">
	<path d="M2,15.9886153 C1.44771525,15.9886153 1,15.5409 1,14.9886153 L1,12.9886153 C1,12.4363305 1.44771525,11.9886153 2,11.9886153 L6,11.988 L5.99934986,7.974 L2.24334986,7.97453768 C1.58060816,7.97453768 1.04334986,7.43727938 1.04334986,6.77453768 C1.04334986,6.44679049 1.17740489,6.13330486 1.41437807,5.90689388 L7.30694797,0.276963503 C7.69436593,-0.0931867382 8.30468712,-0.092198817 8.69090474,0.279203701 L14.5458768,5.90958212 C15.0235785,6.36895950 15.0384334,7.12861225 14.5790560,7.60631401 C14.3528141,7.84158058 14.0404986,7.97453768 13.7141004,7.97453768 L9.99934986,7.974 L10,11.988 L14,11.9886153 C14.5522847,11.9886153 15,12.4363305 15,12.9886153 L15,14.9886153 C15,15.5409 14.5522847,15.9886153 14,15.9886153 L2,15.9886153 Z" />
</svg>